<?xml version="1.0" encoding="utf-8"?>
<!-- Generator: Adobe Illustrator 16.0.0, SVG Export Plug-In . SVG Version: 6.00 Build 0)  -->
<svg version="1.2" baseProfile="tiny" xmlns="http://www.w3.org/2000/svg" xmlns:xlink="http://www.w3.org/1999/xlink" x="0px"
	 y="0px" width="396.667px" height="61.667px" viewBox="0 0 396.667 61.667" overflow="hidden" xml:space="preserve">
<g id="Layer_3">
	<path fill="#9B59B6" d="M33.333,47.667c0,1.657,1.343,3,3,3h44c1.657,0,3-1.343,3-3v-4c0-1.657-1.343-3-3-3h-44
		c-1.657,0-3,1.343-3,3V47.667z"/>
	<path fill="#E67E22" d="M21.333,34.667c0,1.657,1.343,3,3,3h44c1.657,0,3-1.343,3-3v-4c0-1.657-1.343-3-3-3h-44
		c-1.657,0-3,1.343-3,3V34.667z"/>
	<path fill="#27AE60" d="M8.333,22.667c0,1.657,1.343,3,3,3h44c1.657,0,3-1.343,3-3v-4c0-1.657-1.343-3-3-3h-44
		c-1.657,0-3,1.343-3,3V22.667z"/>
</g>
<g id="Layer_4">
	<g>
		<path fill="#333333" d="M107.877,14.866l-5.684,33.427c-0.45,3.535-1.724,6.289-3.823,8.262c-2.1,1.973-4.81,2.939-8.13,2.9
			c-1.328-0.039-2.793-0.225-4.395-0.557l0.674-6.738c0.977,0.215,1.827,0.342,2.549,0.381c2.598,0.039,4.18-1.367,4.746-4.219
			l5.742-33.457H107.877z M100.348,6.81c-0.04-1.289,0.371-2.358,1.23-3.208c0.859-0.85,1.963-1.293,3.311-1.333
			c1.348,0,2.456,0.4,3.325,1.201c0.869,0.801,1.323,1.816,1.362,3.047c0.039,1.309-0.371,2.388-1.23,3.237
			c-0.86,0.85-1.963,1.294-3.311,1.333c-1.23,0.04-2.31-0.332-3.237-1.113C100.87,9.193,100.387,8.138,100.348,6.81z"/>
		<path fill="#333333" d="M124.752,14.251c3.281,0.078,5.791,1.406,7.529,3.984l1.348-3.398l7.383,0.029l-7.617,43.886h-8.32
			l2.959-14.97c-2.208,2.324-4.775,3.447-7.705,3.369c-1.973-0.02-3.702-0.537-5.186-1.553c-1.484-1.015-2.632-2.485-3.442-4.409
			c-0.811-1.923-1.255-4.038-1.333-6.343c-0.059-1.23-0.029-2.432,0.088-3.604l0.176-1.289c0.469-3.281,1.372-6.152,2.71-8.613
			c1.337-2.461,2.978-4.272,4.922-5.435C120.206,14.745,122.369,14.192,124.752,14.251z M118.629,35.014
			c0.195,3.482,1.582,5.252,4.16,5.311c2.324,0.078,4.316-0.948,5.977-3.081l2.402-13.204c-0.762-1.897-2.295-2.885-4.6-2.963
			c-2.07-0.059-3.779,0.758-5.127,2.45s-2.217,4.054-2.607,7.086C118.639,32.628,118.57,34.095,118.629,35.014z"/>
		<path fill="#333333" d="M161.813,43.284c-2.344,2.636-5.254,3.925-8.73,3.867c-3.047-0.039-5.352-1.133-6.914-3.281
			c-1.563-2.148-2.168-4.98-1.816-8.496l3.428-20.508h8.262l-3.486,20.62c-0.078,0.646-0.088,1.251-0.029,1.818
			c0.195,1.956,1.279,2.963,3.252,3.021c2.559,0.078,4.677-0.909,6.357-2.962l3.955-22.497h8.32l-5.508,31.699h-7.705
			L161.813,43.284z"/>
		<path fill="#333333" d="M190.113,47.151c-2.773-0.02-5.229-0.697-7.368-2.035c-2.139-1.338-3.735-3.174-4.79-5.508
			c-1.055-2.333-1.465-4.907-1.23-7.72l0.088-1.172c0.293-3.086,1.191-5.918,2.695-8.496c1.504-2.578,3.438-4.565,5.801-5.962
			c2.363-1.396,4.98-2.055,7.852-1.978c4.082,0.078,7.173,1.58,9.272,4.504c2.1,2.925,2.896,6.626,2.388,11.106l-0.469,3.609
			h-19.424c-0.078,2.051,0.42,3.691,1.494,4.922c1.074,1.23,2.539,1.865,4.395,1.904c3.007,0.078,5.644-1.094,7.91-3.516
			l3.779,4.688c-1.191,1.797-2.911,3.199-5.156,4.205C195.104,46.708,192.691,47.19,190.113,47.151z M192.75,21.106
			c-1.523-0.039-2.876,0.439-4.058,1.436c-1.182,0.996-2.241,2.725-3.179,5.186h11.367l0.176-0.762
			c0.117-0.781,0.127-1.523,0.029-2.227c-0.195-1.132-0.674-2.017-1.436-2.651C194.889,21.454,193.922,21.126,192.75,21.106z"/>
		<path fill="#333333" d="M228.521,22.806c-1.133-0.195-2.062-0.293-2.783-0.293c-2.949-0.078-5.284,1.025-7.002,3.311
			l-3.662,20.742h-8.262l5.508-31.699l7.764-0.029l-0.762,3.867c1.992-2.988,4.453-4.482,7.383-4.482c0.82,0,1.776,0.137,2.871,0.41
			L228.521,22.806z"/>
		<path fill="#333333" d="M242.32,34.495l9.053-19.629h9.199L242.027,51.34c-1.329,2.793-2.886,4.844-4.673,6.152
			s-3.853,1.963-6.196,1.963c-0.919,0-2.246-0.205-3.984-0.615l0.615-6.445l1.143,0.059c2.695,0.078,4.668-0.908,5.918-2.959
			l1.816-3.369l-5.186-31.259h8.555L242.32,34.495z"/>
		<path fill="#333333" d="M275.426,14.251c1.895,0.059,3.623,0.508,5.186,1.348c1.563,0.84,2.793,2.12,3.691,3.838l1.084-4.57h3.252
			l-5.332,31.142c-0.371,2.656-1.211,5-2.52,7.031s-2.983,3.59-5.024,4.674s-4.312,1.586-6.812,1.508
			c-1.992-0.039-3.896-0.537-5.713-1.494c-1.836-0.977-3.311-2.334-4.424-4.072l2.168-2.051c2.012,3.027,4.639,4.58,7.881,4.658
			c2.891,0.078,5.308-0.795,7.251-2.621s3.169-4.313,3.677-7.457l0.762-3.691c-2.813,3.222-6.201,4.775-10.166,4.658
			c-2.969-0.078-5.278-1.215-6.929-3.413c-1.65-2.197-2.515-5.19-2.593-8.979c-0.117-3.496,0.469-6.953,1.758-10.371
			c1.289-3.417,3.042-5.981,5.259-7.69C270.099,14.988,272.613,14.173,275.426,14.251z M264.527,31.228l-0.176,2.721
			c-0.059,3.2,0.498,5.673,1.67,7.419c1.172,1.746,2.9,2.658,5.186,2.736c1.953,0.078,3.779-0.38,5.479-1.375
			s3.164-2.468,4.395-4.419l2.49-14.779c-0.527-1.893-1.44-3.39-2.739-4.492c-1.299-1.102-2.964-1.683-4.995-1.741
			c-2.988-0.098-5.464,1.054-7.427,3.453C266.446,23.151,265.152,26.643,264.527,31.228z"/>
		<path fill="#333333" d="M311.93,46.565c-0.098-0.742-0.127-1.484-0.088-2.226l0.264-2.197c-1.465,1.582-3.14,2.822-5.024,3.72
			s-3.921,1.328-6.108,1.289c-2.676-0.039-4.849-0.883-6.519-2.534c-1.67-1.65-2.417-3.725-2.241-6.226
			c0.156-2.09,0.874-3.901,2.153-5.435c1.279-1.533,3.101-2.725,5.464-3.574s5.01-1.274,7.939-1.274l6.475,0.029l0.527-3.633
			c0.234-2.168-0.234-3.906-1.406-5.215c-1.172-1.308-2.9-2.002-5.186-2.08c-2.305-0.039-4.312,0.532-6.021,1.714
			c-1.709,1.182-2.778,2.739-3.208,4.673h-3.428c0.391-2.773,1.816-5.034,4.277-6.782c2.461-1.748,5.371-2.603,8.73-2.563
			c3.262,0.078,5.776,1.065,7.544,2.959c1.768,1.895,2.485,4.355,2.153,7.383l-2.637,15.938l-0.234,2.549
			c-0.059,1.055,0.02,2.099,0.234,3.134l-0.059,0.352H311.93z M301.559,44.104c2.148,0.078,4.204-0.436,6.167-1.542
			c1.963-1.105,3.589-2.676,4.878-4.712l1.201-7.018l-5.596-0.029c-3.555,0-6.455,0.631-8.701,1.894
			c-2.246,1.263-3.486,3.068-3.721,5.417c-0.176,1.723,0.278,3.142,1.362,4.257C298.233,43.488,299.703,44.065,301.559,44.104z"/>
		<path fill="#333333" d="M332.525,14.866l-1.055,5.42c1.406-1.953,3.032-3.452,4.878-4.497c1.846-1.044,3.823-1.548,5.933-1.509
			c3.047,0.078,5.264,1.143,6.65,3.193s1.875,4.874,1.465,8.467l-3.457,20.625h-3.457l3.457-20.663
			c0.117-1.112,0.137-2.185,0.059-3.219c-0.332-3.473-2.227-5.258-5.684-5.356c-2.051-0.039-3.965,0.571-5.742,1.829
			c-1.777,1.259-3.34,3.156-4.688,5.693l-3.75,21.716h-3.457l5.508-31.699H332.525z"/>
		<path fill="#333333" d="M368.209,6.751l-1.406,8.115h6.357l-0.498,2.871h-6.357l-3.516,21.152l-0.059,1.816
			c0,2.129,0.977,3.223,2.93,3.281c0.605,0.02,1.553-0.049,2.842-0.205l-0.146,2.871c-1.152,0.332-2.324,0.479-3.516,0.439
			c-2.051-0.039-3.545-0.756-4.482-2.152c-0.938-1.397-1.279-3.423-1.025-6.08l3.486-21.123h-5.684l0.527-2.871h5.625l1.436-8.115
			H368.209z"/>
		<path fill="#333333" d="M387.193,6.751l-1.406,8.115h6.357l-0.498,2.871h-6.357l-3.516,21.152l-0.059,1.816
			c0,2.129,0.977,3.223,2.93,3.281c0.605,0.02,1.553-0.049,2.842-0.205l-0.146,2.871c-1.152,0.332-2.324,0.479-3.516,0.439
			c-2.051-0.039-3.545-0.756-4.482-2.152c-0.938-1.397-1.279-3.423-1.025-6.08l3.486-21.123h-5.684l0.527-2.871h5.625l1.436-8.115
			H387.193z"/>
	</g>
</g>
</svg>
